<svg width="1600" height="800" viewBox="0 0 1600 800" fill="none" xmlns="http://www.w3.org/2000/svg">
  <defs>
    <linearGradient id="sky" x1="0" y1="0" x2="1600" y2="800" gradientUnits="userSpaceOnUse">
      <stop stop-color="#020617"/>
      <stop offset="0.48" stop-color="#0B2B4A"/>
      <stop offset="1" stop-color="#1F75BC"/>
    </linearGradient>
    <radialGradient id="glow" cx="0" cy="0" r="1" gradientUnits="userSpaceOnUse" gradientTransform="translate(1110 230) rotate(124) scale(510 620)">
      <stop stop-color="#60A5FA" stop-opacity="0.58"/>
      <stop offset="1" stop-color="#60A5FA" stop-opacity="0"/>
    </radialGradient>
    <linearGradient id="tower" x1="1160" y1="122" x2="1160" y2="610" gradientUnits="userSpaceOnUse">
      <stop stop-color="#93C5FD"/>
      <stop offset="1" stop-color="#1D4ED8"/>
    </linearGradient>
    <linearGradient id="person" x1="1250" y1="378" x2="1250" y2="770" gradientUnits="userSpaceOnUse">
      <stop stop-color="#10233F"/>
      <stop offset="1" stop-color="#04111F"/>
    </linearGradient>
    <filter id="softShadow" x="-20%" y="-20%" width="140%" height="140%">
      <feDropShadow dx="0" dy="18" stdDeviation="18" flood-color="#020617" flood-opacity="0.35"/>
    </filter>
  </defs>

  <rect width="1600" height="800" fill="url(#sky)"/>
  <rect width="1600" height="800" fill="url(#glow)"/>

  <path d="M650 395C778 280 911 287 1043 385C1156 469 1287 430 1398 350C1474 296 1530 283 1600 294V800H0V489C190 421 319 445 458 394C530 368 583 456 650 395Z" fill="#061B31" opacity="0.78"/>
  <path d="M0 470C185 400 308 454 468 408C620 365 685 460 820 436C984 407 1129 317 1289 363C1432 404 1508 362 1600 316V800H0V470Z" fill="#08243F" opacity="0.65"/>

  <g opacity="0.92">
    <rect x="650" y="430" width="84" height="260" rx="4" fill="#0A223A"/>
    <rect x="758" y="365" width="94" height="325" rx="4" fill="#082039"/>
    <rect x="881" y="410" width="72" height="280" rx="4" fill="#0B2947"/>
    <rect x="986" y="330" width="108" height="360" rx="4" fill="#071B31"/>
    <rect x="1212" y="425" width="86" height="265" rx="4" fill="#0B2947"/>
    <rect x="1328" y="382" width="102" height="308" rx="4" fill="#071B31"/>
    <rect x="1460" y="455" width="88" height="235" rx="4" fill="#0A223A"/>
  </g>

  <g opacity="0.72">
    <path d="M690 462H713M690 497H713M690 532H713M690 567H713M690 602H713" stroke="#60A5FA" stroke-width="5" stroke-linecap="round"/>
    <path d="M790 405H819M790 444H819M790 483H819M790 522H819M790 561H819M790 600H819" stroke="#93C5FD" stroke-width="5" stroke-linecap="round"/>
    <path d="M1018 374H1056M1018 416H1056M1018 458H1056M1018 500H1056M1018 542H1056M1018 584H1056" stroke="#3B82F6" stroke-width="5" stroke-linecap="round"/>
    <path d="M1360 424H1396M1360 466H1396M1360 508H1396M1360 550H1396M1360 592H1396" stroke="#93C5FD" stroke-width="5" stroke-linecap="round"/>
  </g>

  <g filter="url(#softShadow)">
    <path d="M1158 118L1168 280H1148L1158 118Z" fill="url(#tower)"/>
    <rect x="1136" y="278" width="48" height="210" rx="10" fill="url(#tower)"/>
    <ellipse cx="1160" cy="270" rx="52" ry="18" fill="#BFDBFE"/>
    <ellipse cx="1160" cy="270" rx="35" ry="10" fill="#2563EB"/>
    <rect x="1146" y="486" width="28" height="145" rx="8" fill="#1E40AF"/>
  </g>

  <g filter="url(#softShadow)">
    <circle cx="1262" cy="366" r="34" fill="#09172A"/>
    <path d="M1210 456C1214 408 1243 385 1275 388C1318 392 1342 428 1355 508L1388 720H1168L1210 456Z" fill="url(#person)"/>
    <path d="M1302 470C1352 487 1383 553 1390 694H1302V470Z" fill="#071427"/>
    <rect x="1287" y="500" width="88" height="150" rx="34" fill="#0B2B4A"/>
    <path d="M1288 552L1360 588L1300 620L1288 552Z" fill="#DC2626"/>
    <path d="M1303 574L1324 586L1306 597L1303 574Z" fill="#FFFFFF" opacity="0.9"/>
  </g>

  <path d="M0 0H760V800H0V0Z" fill="url(#sky)" opacity="0.64"/>
  <path d="M0 0H920V800H0V0Z" fill="#020617" opacity="0.36"/>
</svg>
